<svg id="visual" viewBox="0 0 1000 600" width="1000" height="600" xmlns="http://www.w3.org/2000/svg" xmlns:xlink="http://www.w3.org/1999/xlink" version="1.1"><path d="M0 79L91 61L182 67L273 79L364 61L455 67L545 85L636 85L727 79L818 79L909 73L1000 61L1000 0L909 0L818 0L727 0L636 0L545 0L455 0L364 0L273 0L182 0L91 0L0 0Z" fill="#00fbff"></path><path d="M0 241L91 241L182 271L273 247L364 271L455 199L545 289L636 211L727 235L818 223L909 265L1000 247L1000 59L909 71L818 77L727 77L636 83L545 83L455 65L364 59L273 77L182 65L91 59L0 77Z" fill="#2fbdc0"></path><path d="M0 361L91 343L182 361L273 367L364 355L455 331L545 373L636 313L727 343L818 307L909 355L1000 361L1000 245L909 263L818 221L727 233L636 209L545 287L455 197L364 269L273 245L182 269L91 239L0 239Z" fill="#348384"></path><path d="M0 457L91 415L182 427L273 445L364 451L455 397L545 445L636 403L727 433L818 403L909 427L1000 439L1000 359L909 353L818 305L727 341L636 311L545 371L455 329L364 353L273 365L182 359L91 341L0 359Z" fill="#2d4d4d"></path><path d="M0 601L91 601L182 601L273 601L364 601L455 601L545 601L636 601L727 601L818 601L909 601L1000 601L1000 437L909 425L818 401L727 431L636 401L545 443L455 395L364 449L273 443L182 425L91 413L0 455Z" fill="#1c1c1c"></path></svg>